<?xml version="1.0" standalone="no"?>
<!DOCTYPE svg PUBLIC "-//W3C//DTD SVG 20010904//EN"
 "http://www.w3.org/TR/2001/REC-SVG-20010904/DTD/svg10.dtd">
<svg version="1.0" xmlns="http://www.w3.org/2000/svg"
 width="420.000000pt" height="420.000000pt" viewBox="0 0 420.000000 420.000000"
 preserveAspectRatio="xMidYMid meet">
<metadata>
Created by potrace 1.16, written by Peter Selinger 2001-2019
</metadata>
<g transform="translate(0.000000,420.000000) scale(0.100000,-0.100000)"
fill="#000000" stroke="none">
<path d="M2365 3923 c-9 -20 -27 -51 -40 -69 -22 -29 -23 -33 -9 -45 14 -12
20 -9 38 14 12 15 30 27 39 27 15 0 17 -8 15 -42 l-3 -43 -48 -5 c-26 -3 -47
-8 -47 -12 0 -5 0 -12 0 -18 0 -5 20 -10 45 -10 l45 0 -15 -35 c-8 -20 -28
-55 -46 -80 -30 -42 -32 -65 -5 -65 7 0 30 27 51 60 21 33 40 60 41 60 2 0 17
-20 35 -45 29 -40 35 -44 47 -31 13 12 12 19 -9 48 -13 18 -32 41 -41 50 -28
28 -21 38 28 38 38 0 45 3 42 18 -2 12 -14 18 -41 20 -37 3 -37 4 -37 48 0 42
1 44 30 44 23 0 30 4 30 20 0 18 -7 20 -56 20 l-56 0 7 29 c4 21 2 30 -9 34
-12 5 -20 -4 -31 -30z"/>
<path d="M1520 3940 c0 -6 -33 -10 -79 -10 -85 0 -95 -6 -84 -52 11 -41 43
-47 43 -7 0 15 7 19 35 19 43 0 46 -16 5 -25 -32 -7 -39 -22 -15 -31 24 -10
61 4 86 31 31 32 55 32 71 -2 12 -24 19 -28 58 -28 33 0 45 4 45 15 0 10 -12
16 -32 18 -49 5 -40 22 12 22 38 0 45 -3 45 -20 0 -14 7 -20 21 -20 17 0 20 5
17 38 l-3 37 -80 3 c-44 2 -84 7 -89 12 -13 13 -56 13 -56 0z"/>
<path d="M2955 3940 c-3 -6 1 -13 9 -16 26 -10 18 -23 -16 -26 -21 -2 -33 -8
-33 -18 0 -11 14 -16 53 -18 45 -3 52 -5 42 -18 -7 -7 -28 -14 -47 -14 l-34 0
3 -112 3 -113 120 0 120 0 3 113 3 112 -62 0 c-44 0 -60 3 -57 13 3 7 29 13
71 15 59 3 67 5 67 22 0 19 -7 20 -101 20 -83 0 -99 2 -90 13 8 10 7 17 -1 25
-15 15 -45 16 -53 2z"/>
<path d="M1830 3920 c0 -19 7 -20 105 -20 58 0 105 -2 105 -5 0 -6 -33 -53
-60 -88 -8 -10 -48 -43 -88 -74 -59 -44 -71 -58 -61 -69 14 -17 48 -1 114 56
25 22 50 40 56 40 5 0 9 -48 9 -110 0 -103 1 -110 20 -110 19 0 20 7 20 105 0
81 3 105 13 105 8 0 46 -22 85 -50 61 -43 72 -47 83 -34 15 19 -9 41 -113 105
-38 23 -68 44 -68 47 0 3 8 23 18 43 l17 38 73 1 c65 0 72 2 72 20 0 19 -7 20
-200 20 -193 0 -200 -1 -200 -20z"/>
<path d="M2550 3735 c0 -159 2 -185 15 -185 9 0 18 7 21 15 8 21 70 20 82 -2
6 -10 16 -14 26 -10 15 6 16 27 14 184 l-3 178 -77 3 -78 3 0 -186z m115 15
l0 -125 -37 -3 -38 -3 0 131 0 131 38 -3 37 -3 0 -125z"/>
<path d="M2785 3850 c-10 -16 4 -30 29 -30 36 0 37 -10 5 -50 -37 -46 -35 -74
4 -78 26 -3 28 -6 22 -30 -4 -15 -17 -41 -31 -59 -13 -17 -24 -36 -24 -42 0
-22 23 -22 45 -1 24 23 24 23 62 4 30 -14 67 -19 171 -22 129 -4 132 -3 132
17 0 20 -5 21 -122 21 -138 0 -196 17 -190 55 1 11 5 37 9 58 5 32 3 37 -14
37 -32 0 -33 9 -7 48 14 20 24 45 22 57 -3 17 -11 20 -55 23 -28 2 -54 -2 -58
-8z"/>
<path d="M1410 3759 c0 -42 -3 -52 -20 -56 -11 -3 -20 -9 -21 -14 0 -5 0 -39
-1 -76 0 -60 2 -68 18 -68 16 0 19 9 22 63 l3 62 144 0 145 0 0 -44 c0 -30 -5
-46 -15 -50 -8 -3 -15 -13 -15 -21 0 -12 8 -15 33 -13 l32 3 3 78 c3 71 1 77
-17 77 -17 0 -20 8 -23 53 l-3 52 -142 3 -143 3 0 -52z"/>
<path d="M1454 3636 c-3 -8 -4 -27 -2 -43 l3 -28 98 -3 97 -3 0 46 0 45 -95 0
c-73 0 -97 -3 -101 -14z"/>
<path d="M1560 3292 c-106 -38 -200 -93 -262 -155 -18 -18 -49 -44 -68 -57
-19 -13 -70 -55 -114 -93 -74 -65 -81 -69 -117 -64 -24 3 -53 17 -73 34 -77
68 -173 93 -363 93 l-113 0 0 -142 c0 -77 7 -233 16 -346 8 -112 14 -232 11
-266 -5 -80 -72 -293 -103 -327 -10 -11 -12 -18 -4 -21 7 -2 -13 -73 -55 -193
-162 -462 -225 -695 -225 -825 0 -54 50 -155 124 -248 45 -56 53 -62 96 -68
30 -4 57 -15 74 -31 24 -22 33 -24 76 -18 56 8 90 0 90 -21 0 -8 5 -14 10 -14
6 0 10 -43 10 -108 l0 -108 -82 -94 c-46 -52 -107 -117 -135 -146 -51 -50 -65
-74 -43 -74 10 0 70 62 118 122 15 19 55 65 90 103 57 63 63 67 80 53 16 -15
53 -22 195 -35 60 -5 70 -3 90 15 12 11 51 28 87 37 36 9 93 30 128 47 l62 31
0 45 0 46 20 -22 c24 -25 79 -56 87 -48 15 15 -12 100 -52 166 -25 39 -45 74
-45 77 0 3 16 -9 36 -26 52 -47 106 -78 153 -91 29 -8 61 -29 99 -66 31 -30
57 -54 59 -54 9 0 1 26 -14 43 -17 19 -17 20 2 15 11 -3 28 -9 38 -13 27 -11
21 6 -25 71 -76 106 -113 177 -97 183 6 2 14 -1 18 -6 11 -18 85 -50 143 -63
55 -13 58 -15 83 -65 28 -58 35 -128 11 -119 -17 7 -52 -10 -86 -42 -27 -26
-184 -142 -215 -160 -11 -6 -34 -31 -52 -55 -40 -55 -112 -183 -107 -188 8 -8
32 22 58 73 15 27 33 57 41 65 74 81 149 146 250 217 39 27 76 54 83 61 17 17
42 17 42 1 0 -15 43 -68 55 -68 12 0 138 -51 150 -60 6 -4 26 -11 45 -15 19
-4 50 -16 70 -26 43 -22 100 -35 100 -22 0 5 -21 17 -47 25 -123 43 -162 57
-179 67 -10 6 -48 22 -84 37 -35 14 -70 33 -77 43 -7 9 -12 41 -12 71 1 30 3
47 6 38 2 -10 8 -18 13 -18 5 0 23 -12 40 -26 18 -16 91 -48 173 -76 l142 -49
120 4 120 4 -47 -16 c-57 -19 -98 -56 -98 -88 0 -15 -6 -23 -16 -23 -9 0 -31
-8 -48 -19 -17 -10 -53 -24 -81 -30 -68 -17 -95 -36 -95 -67 0 -28 38 -104 52
-104 12 0 10 4 -13 54 -12 24 -19 51 -16 60 3 8 32 22 64 31 32 8 75 24 95 35
54 29 62 26 55 -20 -3 -22 -1 -43 4 -46 5 -3 19 -25 30 -50 19 -39 25 -44 54
-44 18 0 35 -6 38 -12 3 -10 7 -10 18 -2 8 7 42 14 76 16 37 2 70 11 80 20 10
9 28 19 41 23 19 5 25 1 37 -29 9 -20 20 -36 25 -36 13 0 13 3 -6 50 -16 40
-16 42 5 64 15 16 21 35 21 69 0 53 6 57 37 24 53 -56 92 -94 124 -122 19 -16
44 -43 56 -60 12 -16 24 -27 28 -23 14 14 -29 71 -90 119 -36 28 -65 55 -65
59 0 5 -14 22 -31 38 l-31 29 56 33 c82 47 109 84 121 172 l11 73 49 -1 c40
-1 65 -9 124 -45 148 -88 319 -261 391 -397 26 -49 57 -88 65 -81 3 4 -4 23
-17 42 -13 20 -43 68 -68 108 -47 76 -178 214 -267 282 -29 21 -53 44 -53 51
0 6 10 23 23 38 20 26 25 27 62 18 66 -16 105 -12 208 21 89 28 101 35 128 72
16 22 32 51 35 64 4 16 13 23 29 23 53 0 287 92 313 122 33 40 42 104 42 299
0 178 -2 205 -26 300 -14 57 -31 113 -37 124 -5 10 -16 40 -23 65 -49 171
-177 465 -265 605 -65 103 -66 184 -5 260 49 60 53 71 76 201 11 65 29 170 40
232 34 197 28 212 -91 212 -56 0 -91 -9 -206 -50 -188 -69 -211 -79 -266 -117
-26 -18 -51 -33 -57 -33 -5 0 -13 -7 -18 -16 -7 -13 -14 -14 -28 -6 -61 33
-183 62 -331 81 -76 9 -70 6 -211 119 -57 46 -117 87 -161 112 -14 8 -43 25
-64 37 -69 41 -132 52 -342 57 l-200 5 -105 -37z m555 -9 c54 -17 148 -66 180
-93 11 -10 34 -25 50 -33 27 -14 83 -58 169 -133 33 -28 63 -36 218 -59 95
-15 155 -31 241 -68 15 -7 30 -22 33 -34 11 -40 27 -26 20 17 -4 26 -2 40 5
40 6 0 29 15 52 33 23 19 83 48 132 66 134 49 167 61 205 78 47 21 170 29 200
13 25 -14 25 -28 -4 -200 -57 -338 -57 -338 -111 -405 -30 -36 -56 -112 -56
-158 0 -10 18 -48 40 -85 73 -119 199 -385 239 -503 131 -380 124 -348 129
-589 3 -190 2 -221 -14 -265 -16 -43 -26 -53 -72 -77 -50 -26 -220 -88 -242
-88 -6 0 -7 5 -4 10 3 6 -1 10 -9 10 -8 0 -18 -4 -21 -10 -3 -5 -19 -10 -36
-10 -16 0 -29 -4 -29 -10 0 -5 11 -10 25 -10 32 0 31 -6 -4 -62 -28 -44 -33
-47 -131 -78 -85 -27 -110 -31 -156 -25 -30 3 -54 11 -54 16 0 21 24 55 75
110 l53 55 6 -68 c4 -37 12 -70 17 -74 17 -10 39 17 54 71 19 64 68 141 95
148 13 3 31 28 48 64 26 55 27 68 33 253 7 221 23 423 39 478 13 49 13 247 -1
314 -19 93 -46 170 -97 278 -27 58 -53 115 -56 128 -10 30 -51 56 -73 47 -16
-7 -15 -9 7 -14 27 -7 28 -8 101 -166 84 -180 109 -283 109 -438 0 -56 -5
-118 -10 -139 -16 -56 -32 -252 -39 -473 -5 -182 -8 -205 -30 -253 -14 -32
-33 -57 -46 -62 -30 -11 -82 -93 -102 -160 -16 -53 -17 -54 -24 -25 -4 17 -7
54 -8 83 -1 39 -5 52 -16 52 -8 0 -15 -4 -15 -10 0 -5 -26 -38 -58 -72 -33
-35 -64 -72 -70 -83 -11 -19 -11 -19 -12 3 0 12 -4 22 -10 22 -5 0 -10 -18
-10 -39 0 -22 -5 -43 -11 -47 -8 -5 -10 1 -6 17 43 188 60 1010 22 1074 -7 11
-27 46 -44 78 l-32 59 33 -7 c18 -4 38 -15 45 -24 14 -19 26 -11 17 12 -3 9
-24 22 -45 29 -22 6 -45 18 -52 26 -6 8 -21 63 -33 121 -16 80 -35 135 -78
226 -84 178 -120 243 -144 265 -9 8 -23 27 -29 43 -25 54 -39 33 -51 -75 -10
-93 -15 -112 -62 -203 -91 -179 -86 -182 -95 68 -4 120 -11 217 -16 217 -5 0
-16 -24 -24 -54 -9 -30 -27 -71 -41 -91 -13 -20 -24 -38 -24 -40 0 -2 -15 -19
-33 -37 -18 -18 -48 -55 -67 -83 -111 -164 -259 -305 -415 -395 -24 -14 -51
-32 -62 -41 -39 -34 -132 -79 -162 -79 -36 0 -41 17 -8 29 33 13 177 169 177
192 0 10 -4 19 -10 19 -5 0 -10 -6 -10 -14 0 -23 -150 -176 -171 -176 -26 0
-27 5 -32 160 -5 130 -21 211 -42 213 -5 0 -32 -44 -60 -98 -27 -54 -54 -98
-60 -97 -16 2 -25 72 -18 156 4 59 3 80 -8 86 -10 7 -10 14 -1 35 7 14 12 33
12 41 0 41 76 172 167 289 69 87 99 164 87 219 -12 58 -47 62 -72 9 -9 -21
-20 -40 -23 -43 -14 -11 -129 -191 -179 -280 -29 -52 -61 -106 -70 -120 -19
-28 -90 -239 -90 -268 0 -10 -13 -58 -30 -108 -30 -90 -33 -98 -65 -169 -15
-33 -19 -75 -22 -250 -4 -196 -2 -217 21 -320 43 -186 58 -249 67 -270 4 -11
13 -47 20 -80 14 -75 39 -138 79 -204 18 -28 30 -56 28 -61 -5 -15 -103 53
-170 117 -60 56 -95 64 -58 13 11 -15 20 -31 20 -35 0 -3 22 -43 49 -88 49
-81 70 -137 52 -137 -12 0 -103 95 -118 125 -7 13 -22 27 -33 30 -11 4 -36 22
-55 42 -24 25 -45 36 -74 40 -38 5 -44 11 -89 82 -27 43 -62 120 -81 176 -19
55 -47 128 -63 162 -40 84 -56 158 -68 315 -6 73 -15 171 -20 218 -5 47 -10
161 -10 253 0 199 11 235 84 288 44 31 62 56 50 68 -3 3 -11 -1 -17 -9 -7 -8
-32 -31 -56 -50 -72 -56 -81 -86 -81 -295 0 -99 4 -216 10 -260 5 -44 14 -138
20 -210 13 -173 26 -236 65 -320 18 -38 47 -115 66 -170 21 -62 53 -131 86
-183 47 -74 56 -82 83 -82 33 0 70 -15 70 -29 0 -12 -48 -31 -78 -31 -15 0
-37 -6 -48 -14 -40 -29 -104 -38 -211 -31 -94 7 -103 9 -98 26 5 15 -2 19 -39
24 -25 4 -61 4 -79 1 -25 -5 -40 -1 -65 18 -18 13 -52 27 -75 30 -37 6 -49 15
-92 68 -64 79 -114 181 -115 233 0 67 39 245 90 410 17 55 37 120 44 145 8 25
37 108 65 185 29 76 65 184 82 240 17 55 39 123 49 150 66 176 70 219 45 520
-8 99 -15 240 -15 314 l0 134 143 -5 c162 -6 225 -24 294 -83 23 -19 47 -35
55 -35 8 0 19 -5 25 -11 21 -21 62 0 146 74 45 40 98 84 117 97 19 14 50 39
68 57 55 55 143 105 252 144 l105 37 195 -5 c139 -3 209 -9 245 -20z m-452
-569 c9 -50 -20 -123 -80 -201 -32 -41 -69 -91 -82 -111 -33 -49 -91 -169 -91
-187 0 -8 -8 -31 -17 -51 -14 -28 -15 -38 -5 -41 25 -9 14 -89 -24 -160 -20
-37 -47 -89 -61 -115 -17 -32 -27 -75 -34 -140 -6 -51 -16 -124 -24 -163 -36
-174 -39 -316 -12 -415 58 -207 104 -348 122 -375 12 -16 27 -46 35 -65 7 -19
24 -51 37 -70 13 -19 23 -39 23 -43 0 -5 11 -22 25 -39 14 -16 25 -36 25 -44
0 -12 -5 -12 -37 1 -52 22 -76 47 -121 124 -51 89 -61 112 -82 206 -10 44 -28
116 -40 160 -67 256 -71 286 -67 500 3 165 7 207 22 240 40 90 95 249 95 276
0 36 72 244 100 289 15 25 56 95 90 155 35 61 77 128 94 150 32 41 44 59 72
113 21 39 30 40 37 6z m1093 -342 c11 -20 26 -46 32 -57 83 -147 181 -410 160
-431 -3 -3 -14 -1 -25 4 -10 6 -52 26 -94 45 -54 25 -86 47 -109 76 -18 22
-37 41 -42 41 -36 0 54 -96 123 -130 32 -17 65 -30 73 -30 23 0 78 -51 93 -87
7 -19 34 -71 59 -116 l46 -82 1 -255 c1 -140 -2 -329 -6 -420 l-9 -166 -61
-23 c-34 -13 -98 -41 -142 -62 -62 -31 -91 -39 -135 -39 -31 0 -102 -13 -165
-31 -60 -18 -132 -31 -160 -31 -95 0 -460 22 -530 31 -38 5 -110 14 -160 20
-94 11 -153 24 -195 44 -36 17 -84 50 -93 65 -4 6 -14 12 -22 12 -20 0 -31 24
-79 178 -75 240 -90 314 -82 397 10 91 21 173 34 240 6 33 16 97 22 143 10 86
22 120 76 210 36 59 32 62 50 -40 12 -71 43 -45 105 87 40 87 42 89 50 60 7
-25 28 -335 24 -342 -1 -2 -25 -7 -54 -13 -30 -6 -69 -22 -89 -38 -21 -15 -49
-33 -64 -40 -23 -10 -39 -32 -23 -32 13 0 65 28 97 52 40 31 135 55 152 38 22
-22 90 -10 152 28 33 20 75 46 93 57 39 23 64 41 168 116 101 73 205 184 290
309 17 25 45 61 63 80 17 19 46 57 63 84 l32 49 6 -64 c4 -35 7 -112 8 -171 1
-105 2 -108 24 -108 40 0 166 246 167 326 0 17 3 46 6 63 l7 32 21 -21 c12
-11 31 -37 42 -58z m301 -1664 c-3 -13 -13 -66 -23 -118 -10 -52 -19 -97 -21
-99 -1 -2 -20 7 -41 21 -21 14 -52 29 -70 33 -18 3 -32 8 -32 9 0 2 16 34 36
72 30 59 42 72 77 86 61 24 80 23 74 -4z m-163 -60 c-33 -65 -55 -89 -75 -83
-13 4 -19 2 -19 -9 0 -9 -7 -16 -15 -16 -28 0 -162 -69 -196 -101 -19 -17 -44
-40 -56 -51 -17 -16 -37 -21 -87 -22 l-66 -1 1 55 c2 83 11 113 39 127 49 24
258 73 312 73 41 0 68 7 109 29 70 37 72 37 53 -1z m-1029 -59 c39 -5 147 -13
242 -17 155 -6 174 -9 188 -27 28 -34 45 -83 45 -124 0 -36 -3 -42 -27 -48
-16 -5 -80 -8 -143 -8 -111 1 -119 2 -235 45 -95 35 -129 53 -166 87 -25 24
-51 43 -57 43 -11 0 -42 50 -42 66 0 7 48 2 195 -17z m-815 -17 c0 -5 20 -31
45 -58 36 -39 45 -56 45 -85 0 -31 -5 -41 -32 -57 -39 -24 -152 -62 -183 -62
-12 0 -32 -12 -46 -26 -22 -24 -28 -26 -89 -20 -202 18 -200 17 -200 146 0 47
4 90 8 96 4 7 47 11 122 10 102 -1 120 2 158 22 24 12 51 21 60 18 10 -3 28 1
42 9 28 16 70 20 70 7z m1736 -114 c-8 -76 -34 -113 -115 -162 -66 -40 -86
-44 -94 -18 -4 9 -16 30 -29 45 l-23 28 55 51 c46 42 172 115 204 117 5 1 6
-26 2 -61z m-250 -155 c26 -36 44 -87 44 -128 0 -34 -34 -75 -80 -95 -14 -6
-36 -17 -50 -25 -14 -8 -51 -15 -86 -15 -53 0 -66 4 -100 30 -40 32 -62 75
-63 122 -1 14 5 29 12 31 9 4 8 8 -3 16 -13 9 -12 13 8 33 36 37 107 56 208
57 87 1 91 0 110 -26z"/>
<path d="M3457 2992 c-27 -9 -67 -32 -90 -50 -23 -18 -77 -60 -120 -93 -43
-33 -81 -67 -84 -75 -9 -23 28 -54 88 -73 49 -16 54 -21 57 -49 4 -43 22 -41
22 2 0 40 -12 52 -63 61 -22 4 -50 18 -65 30 l-26 22 77 59 c43 32 99 76 125
96 45 37 108 65 118 55 3 -3 1 -22 -5 -44 -6 -21 -14 -96 -17 -168 -7 -129 -7
-130 -38 -158 -17 -15 -41 -32 -53 -37 -13 -5 -23 -16 -23 -24 0 -13 4 -12 30
0 16 9 35 23 42 33 7 10 22 21 34 25 19 6 21 16 27 144 4 76 13 160 22 190 15
49 14 73 -3 72 -4 -1 -29 -9 -55 -18z"/>
<path d="M613 2808 c-4 -7 -8 -74 -8 -148 -1 -74 -4 -152 -9 -172 -6 -27 -5
-38 3 -38 6 0 14 14 18 30 5 30 93 120 116 120 14 0 2 132 -17 167 -22 43 -85
68 -103 41z m58 -21 c26 -20 39 -53 46 -117 4 -41 2 -60 -5 -60 -6 0 -27 -13
-45 -30 l-34 -30 -5 118 c-3 64 -3 120 -1 125 6 10 26 8 44 -6z"/>
<path d="M2596 1662 c-3 -6 -9 -38 -12 -71 -7 -67 17 -168 42 -178 8 -3 14
-17 14 -30 0 -25 1 -26 48 -18 57 10 84 10 140 0 l42 -8 0 52 c0 44 -4 56 -28
79 -16 15 -36 48 -46 74 -20 56 -66 98 -106 98 -15 0 -41 3 -58 6 -16 3 -32 1
-36 -4z"/>
<path d="M1631 1521 c-11 -20 -27 -43 -35 -50 -22 -18 -20 -44 4 -66 11 -10
20 -23 20 -29 0 -6 -4 -4 -10 4 -18 29 -23 -1 -11 -71 16 -98 23 -109 70 -109
31 0 44 6 65 31 14 17 26 38 26 47 1 15 2 15 11 0 6 -12 22 -18 44 -18 42 0
44 11 8 40 -16 12 -23 23 -18 26 13 5 8 124 -6 170 -11 36 -42 53 -107 59 -40
3 -43 2 -61 -34z"/>
<path d="M2266 1152 c-8 -15 -23 -35 -34 -45 -11 -10 -33 -39 -48 -64 l-29
-45 -60 6 c-44 5 -56 3 -48 -5 6 -6 32 -14 57 -16 37 -5 54 -14 90 -49 43 -44
44 -44 115 -44 83 0 146 26 161 66 5 13 29 42 51 64 37 35 48 40 89 40 43 0
49 3 60 30 17 41 8 46 -25 16 -22 -21 -38 -26 -79 -26 -86 0 -173 26 -219 65
-49 42 -62 43 -81 7z m70 -23 c27 -29 62 -46 115 -54 74 -11 79 -19 36 -58
-20 -19 -37 -42 -37 -51 0 -28 -72 -56 -143 -56 -63 0 -66 1 -102 41 -20 23
-33 44 -27 48 5 3 18 20 28 37 29 46 88 114 100 114 6 0 19 -9 30 -21z"/>
<path d="M2328 281 c-64 -22 -80 -40 -86 -100 -7 -74 2 -81 110 -81 88 0 153
16 170 43 4 7 8 34 8 60 0 68 -32 98 -104 96 -28 -1 -72 -9 -98 -18z m167 -25
c10 -15 15 -40 13 -63 -4 -56 -45 -74 -158 -71 l-85 3 -3 35 c-1 19 3 46 10
59 16 29 92 58 160 60 40 1 50 -3 63 -23z"/>
<path d="M3487 633 c-4 -3 11 -20 32 -37 176 -143 401 -360 430 -415 7 -13 28
-43 46 -67 19 -24 39 -60 46 -79 7 -19 19 -35 26 -35 9 0 10 6 0 28 -25 55
-48 92 -57 92 -6 0 -10 4 -10 10 0 42 -212 269 -398 425 -94 78 -107 87 -115
78z"/>
</g>
</svg>
